<?xml version="1.0" encoding="UTF-8"?>
<svg id="Layer_2" data-name="Layer 2" xmlns="http://www.w3.org/2000/svg" viewBox="0 0 848.56 569.22">
  <defs>
    <style>
      .cls-1, .cls-2, .cls-3 {
        stroke-miterlimit: 10;
        stroke-width: 2px;
      }

      .cls-1, .cls-3 {
        fill: #edf0da;
        stroke: #1c2321;
      }

      .cls-2 {
        fill: #1c2321;
        stroke: #edf0da;
      }

      .cls-3 {
        font-family: Satoshi-Black, Satoshi;
        font-size: 135.8px;
        font-weight: 800;
        letter-spacing: -.08em;
      }
    </style>
  </defs>
  <g id="Layer_2-2" data-name="Layer 2">
    <text class="cls-3" transform="translate(51.74 533.45) scale(4.18 1)"><tspan x="0" y="0">UP</tspan></text>
    <g>
      <path class="cls-1" d="M92.58,424.09h91.87v61.25c0,12.63,28.92,19.56,80.53,19.56s81.66-7.2,81.66-19.56v-61.25h91.87v62.74c0,23.9-68.05,39.38-173.54,39.38s-172.4-15.35-172.4-39.38v-62.74Z"/>
      <path class="cls-1" d="M572.34,491.18v33.41h-91.87v-100.5h170.13c85.63,0,142.91,13.45,142.91,33.54s-57.28,33.54-142.91,33.54h-78.26ZM572.34,443.64v27.98h57.84c44.23,0,66.35-4.62,66.35-13.99s-22.12-13.99-66.35-13.99h-57.84Z"/>
    </g>
    <path class="cls-2" d="M114.44,334.26h81l8.89,66.32h-120.9L1.23,9.27h53.75l59.46,324.99Z"/>
    <path class="cls-2" d="M667.07,217.95L783.43,9.27h63.37l-112.18,188.41,30.64,202.9h-49.8l-23.5-131.41-40.86,68.77-8.34,62.64h-43.14L641.1,9.27h53.75l-27.77,208.68Z"/>
    <path class="cls-2" d="M386.78,226.09C384.06,99.51,332.63,1,261,1s-106.45,99.11-88.38,225.61c15.81,110.64,64.62,179.26,121.42,179.26s95.12-69.08,92.74-179.78ZM297.72,355.68c-25.04,0-43.51-30.11-49.64-83.79-6.62-57.96,6.29-95.4,34.93-95.4s47.47,37.44,50.37,95.4c2.66,52.95-10.82,83.79-35.66,83.79Z"/>
    <path class="cls-2" d="M509.31,1c-71.3,0-118.81,99.11-116.52,225.61,2.01,110.64,42.27,179.26,99.06,179.26s103.74-69.08,115.16-179.78C620.08,99.51,580.94,1,509.31,1ZM539.13,271.89c-3.95,52.95-21.28,83.79-46.11,83.79s-39.75-30.11-39.19-83.79c.61-57.96,18.19-95.4,46.83-95.4s42.8,37.44,38.47,95.4Z"/>
  </g>
</svg>